<?xml version="1.0" encoding="UTF-8" standalone="no"?><svg xmlns="http://www.w3.org/2000/svg" xmlns:xlink="http://www.w3.org/1999/xlink" contentStyleType="text/css" height="1127px" preserveAspectRatio="none" style="width:670px;height:1127px;background:#FFFFFF;" version="1.1" viewBox="0 0 670 1127" width="670px" zoomAndPan="magnify"><defs/><g><rect fill="#FFFFFF" height="802.585" style="stroke:#000000;stroke-width:1.0;" width="10" x="144" y="234.0112"/><rect fill="#FFFFFF" height="300.1938" style="stroke:#000000;stroke-width:1.0;" width="10" x="149" y="271.8105"/><rect fill="#FFFFFF" height="411.7925" style="stroke:#000000;stroke-width:1.0;" width="10" x="149" y="623.8037"/><rect fill="#FFFFFF" height="202.7959" style="stroke:#000000;stroke-width:1.0;" width="10" x="154" y="691.4023"/><rect fill="#FFFFFF" height="196.7959" style="stroke:#000000;stroke-width:1.0;" width="10" x="401" y="339.4092"/><rect fill="#FFFFFF" height="295.1938" style="stroke:#000000;stroke-width:1.0;" width="649" x="15" y="291.8105"/><rect fill="#FFFFFF" height="384.7925" style="stroke:#000000;stroke-width:1.0;" width="581" x="83" y="643.8037"/><rect fill="#FFFFFF" height="105.3979" style="stroke:#000000;stroke-width:1.0;" width="236" x="93" y="916.1982"/><rect fill="#FFFFFF" height="44.7993" style="stroke:none;stroke-width:1.0;" width="236" x="93" y="976.7969"/><line style="stroke:#000000;stroke-width:1.0;stroke-dasharray:5.0,5.0;" x1="42" x2="42" y1="83.0146" y2="1045.5962"/><line style="stroke:#000000;stroke-width:1.0;stroke-dasharray:5.0,5.0;" x1="149" x2="149" y1="83.0146" y2="1045.5962"/><line style="stroke:#000000;stroke-width:1.0;stroke-dasharray:5.0,5.0;" x1="406" x2="406" y1="83.0146" y2="1045.5962"/><line style="stroke:#000000;stroke-width:1.0;stroke-dasharray:5.0,5.0;" x1="604" x2="604" y1="83.0146" y2="1045.5962"/><text fill="#000000" font-family="Verdana" font-size="14" lengthAdjust="spacing" textLength="28" x="25" y="80.0752">用户</text><ellipse cx="42" cy="14" fill="#FFFFFF" rx="8" ry="8" style="stroke:#000000;stroke-width:1.0;"/><path d="M42,22 L42,49 M29,30 L55,30 M42,49 L29,64 M42,49 L55,64 " fill="none" style="stroke:#000000;stroke-width:1.0;"/><text fill="#000000" font-family="Verdana" font-size="14" lengthAdjust="spacing" textLength="28" x="25" y="1058.6714">用户</text><ellipse cx="42" cy="1070.6108" fill="#FFFFFF" rx="8" ry="8" style="stroke:#000000;stroke-width:1.0;"/><path d="M42,1078.6108 L42,1105.6108 M29,1086.6108 L55,1086.6108 M42,1105.6108 L29,1120.6108 M42,1105.6108 L55,1120.6108 " fill="none" style="stroke:#000000;stroke-width:1.0;"/><rect fill="#FFFFFF" height="31.0146" rx="2.5" ry="2.5" style="stroke:#000000;stroke-width:1.0;" width="72" x="113" y="51"/><text fill="#000000" font-family="Verdana" font-size="14" lengthAdjust="spacing" textLength="58" x="120" y="72.0752">Browser</text><rect fill="#FFFFFF" height="31.0146" rx="2.5" ry="2.5" style="stroke:#000000;stroke-width:1.0;" width="72" x="113" y="1044.5962"/><text fill="#000000" font-family="Verdana" font-size="14" lengthAdjust="spacing" textLength="58" x="120" y="1065.6714">Browser</text><rect fill="#FFFFFF" height="31.0146" rx="2.5" ry="2.5" style="stroke:#000000;stroke-width:1.0;" width="60" x="376" y="51"/><text fill="#000000" font-family="Verdana" font-size="14" lengthAdjust="spacing" textLength="46" x="383" y="72.0752">Server</text><rect fill="#FFFFFF" height="31.0146" rx="2.5" ry="2.5" style="stroke:#000000;stroke-width:1.0;" width="60" x="376" y="1044.5962"/><text fill="#000000" font-family="Verdana" font-size="14" lengthAdjust="spacing" textLength="46" x="383" y="1065.6714">Server</text><rect fill="#FFFFFF" height="31.0146" rx="2.5" ry="2.5" style="stroke:#000000;stroke-width:1.0;" width="80" x="564" y="51"/><text fill="#000000" font-family="Verdana" font-size="14" lengthAdjust="spacing" textLength="66" x="571" y="72.0752">Database</text><rect fill="#FFFFFF" height="31.0146" rx="2.5" ry="2.5" style="stroke:#000000;stroke-width:1.0;" width="80" x="564" y="1044.5962"/><text fill="#000000" font-family="Verdana" font-size="14" lengthAdjust="spacing" textLength="66" x="571" y="1065.6714">Database</text><rect fill="#FFFFFF" height="802.585" style="stroke:#000000;stroke-width:1.0;" width="10" x="144" y="234.0112"/><rect fill="#FFFFFF" height="300.1938" style="stroke:#000000;stroke-width:1.0;" width="10" x="149" y="271.8105"/><rect fill="#FFFFFF" height="411.7925" style="stroke:#000000;stroke-width:1.0;" width="10" x="149" y="623.8037"/><rect fill="#FFFFFF" height="202.7959" style="stroke:#000000;stroke-width:1.0;" width="10" x="154" y="691.4023"/><rect fill="#FFFFFF" height="196.7959" style="stroke:#000000;stroke-width:1.0;" width="10" x="401" y="339.4092"/><polygon fill="#000000" points="137,110.814,147,114.814,137,118.814,141,114.814" style="stroke:#000000;stroke-width:1.0;"/><line style="stroke:#000000;stroke-width:1.0;" x1="42" x2="143" y1="114.814" y2="114.814"/><text fill="#000000" font-family="Verdana" font-size="13" lengthAdjust="spacing" textLength="83" x="49" y="110.0845">access page</text><polygon fill="#000000" points="394,140.6133,404,144.6133,394,148.6133,398,144.6133" style="stroke:#000000;stroke-width:1.0;"/><line style="stroke:#000000;stroke-width:1.0;" x1="149" x2="400" y1="144.6133" y2="144.6133"/><text fill="#000000" font-family="Verdana" font-size="13" lengthAdjust="spacing" textLength="220" x="156" y="139.8838">GET http://localhost:8080/topics</text><polygon fill="#000000" points="592,170.4126,602,174.4126,592,178.4126,596,174.4126" style="stroke:#000000;stroke-width:1.0;"/><line style="stroke:#000000;stroke-width:1.0;" x1="406" x2="598" y1="174.4126" y2="174.4126"/><text fill="#000000" font-family="Verdana" font-size="13" lengthAdjust="spacing" textLength="84" x="413" y="169.6831">Query topics</text><polygon fill="#000000" points="417,200.2119,407,204.2119,417,208.2119,413,204.2119" style="stroke:#000000;stroke-width:1.0;"/><line style="stroke:#000000;stroke-width:1.0;stroke-dasharray:2.0,2.0;" x1="411" x2="603" y1="204.2119" y2="204.2119"/><text fill="#000000" font-family="Verdana" font-size="13" lengthAdjust="spacing" textLength="88" x="423" y="199.4824">Return topics</text><polygon fill="#000000" points="165,230.0112,155,234.0112,165,238.0112,161,234.0112" style="stroke:#000000;stroke-width:1.0;"/><line style="stroke:#000000;stroke-width:1.0;stroke-dasharray:2.0,2.0;" x1="159" x2="405" y1="234.0112" y2="234.0112"/><text fill="#000000" font-family="Verdana" font-size="13" lengthAdjust="spacing" textLength="88" x="171" y="229.2817">Return topics</text><line style="stroke:#000000;stroke-width:1.0;" x1="154" x2="201" y1="258.8105" y2="258.8105"/><line style="stroke:#000000;stroke-width:1.0;" x1="201" x2="201" y1="258.8105" y2="271.8105"/><line style="stroke:#000000;stroke-width:1.0;" x1="160" x2="201" y1="271.8105" y2="271.8105"/><polygon fill="#000000" points="170,267.8105,160,271.8105,170,275.8105,166,271.8105" style="stroke:#000000;stroke-width:1.0;"/><text fill="#000000" font-family="Verdana" font-size="13" lengthAdjust="spacing" textLength="107" x="166" y="254.0811">Render topic list</text><path d="M15,291.8105 L91,291.8105 L91,299.6099 L81,309.6099 L15,309.6099 L15,291.8105 " fill="#FFFFFF" style="stroke:#000000;stroke-width:1.0;"/><rect fill="none" height="295.1938" style="stroke:#000000;stroke-width:1.0;" width="649" x="15" y="291.8105"/><text fill="#000000" font-family="Verdana" font-size="13" font-weight="bold" lengthAdjust="spacing" textLength="31" x="30" y="305.8804">loop</text><text fill="#000000" font-family="Verdana" font-size="11" font-weight="bold" lengthAdjust="spacing" textLength="54" x="106" y="304.8696">[Topics]</text><line style="stroke:#000000;stroke-width:1.0;" x1="159" x2="206" y1="326.4092" y2="326.4092"/><line style="stroke:#000000;stroke-width:1.0;" x1="206" x2="206" y1="326.4092" y2="339.4092"/><line style="stroke:#000000;stroke-width:1.0;" x1="165" x2="206" y1="339.4092" y2="339.4092"/><polygon fill="#000000" points="175,335.4092,165,339.4092,175,343.4092,171,339.4092" style="stroke:#000000;stroke-width:1.0;"/><text fill="#000000" font-family="Verdana" font-size="13" lengthAdjust="spacing" textLength="228" x="171" y="321.6797">Create &lt;li&gt; element for each topic</text><polygon fill="#000000" points="137,370.2085,147,374.2085,137,378.2085,141,374.2085" style="stroke:#000000;stroke-width:1.0;"/><line style="stroke:#000000;stroke-width:1.0;" x1="42" x2="143" y1="374.2085" y2="374.2085"/><text fill="#000000" font-family="Verdana" font-size="13" lengthAdjust="spacing" textLength="59" x="49" y="369.479">Click &lt;li&gt;</text><polygon fill="#000000" points="389,400.0078,399,404.0078,389,408.0078,393,404.0078" style="stroke:#000000;stroke-width:1.0;"/><line style="stroke:#000000;stroke-width:1.0;" x1="159" x2="395" y1="404.0078" y2="404.0078"/><text fill="#000000" font-family="Verdana" font-size="13" lengthAdjust="spacing" textLength="89" x="166" y="399.2783">Click on topic</text><line style="stroke:#000000;stroke-width:1.0;" x1="411" x2="453" y1="433.8071" y2="433.8071"/><line style="stroke:#000000;stroke-width:1.0;" x1="453" x2="453" y1="433.8071" y2="446.8071"/><line style="stroke:#000000;stroke-width:1.0;" x1="412" x2="453" y1="446.8071" y2="446.8071"/><polygon fill="#000000" points="422,442.8071,412,446.8071,422,450.8071,418,446.8071" style="stroke:#000000;stroke-width:1.0;"/><text fill="#000000" font-family="Verdana" font-size="13" lengthAdjust="spacing" textLength="149" x="418" y="429.0776">Load content for topic</text><polygon fill="#000000" points="592,472.6064,602,476.6064,592,480.6064,596,476.6064" style="stroke:#000000;stroke-width:1.0;"/><line style="stroke:#000000;stroke-width:1.0;" x1="411" x2="598" y1="476.6064" y2="476.6064"/><text fill="#000000" font-family="Verdana" font-size="13" lengthAdjust="spacing" textLength="169" x="418" y="471.877">Query messages for topic</text><polygon fill="#000000" points="422,502.4058,412,506.4058,422,510.4058,418,506.4058" style="stroke:#000000;stroke-width:1.0;"/><line style="stroke:#000000;stroke-width:1.0;stroke-dasharray:2.0,2.0;" x1="416" x2="603" y1="506.4058" y2="506.4058"/><text fill="#000000" font-family="Verdana" font-size="13" lengthAdjust="spacing" textLength="112" x="428" y="501.6763">Return messages</text><polygon fill="#000000" points="170,532.2051,160,536.2051,170,540.2051,166,536.2051" style="stroke:#000000;stroke-width:1.0;"/><line style="stroke:#000000;stroke-width:1.0;stroke-dasharray:2.0,2.0;" x1="164" x2="405" y1="536.2051" y2="536.2051"/><text fill="#000000" font-family="Verdana" font-size="13" lengthAdjust="spacing" textLength="112" x="176" y="531.4756">Return messages</text><line style="stroke:#000000;stroke-width:1.0;" x1="159" x2="201" y1="571.0044" y2="571.0044"/><line style="stroke:#000000;stroke-width:1.0;" x1="201" x2="201" y1="571.0044" y2="584.0044"/><line style="stroke:#000000;stroke-width:1.0;" x1="154" x2="201" y1="584.0044" y2="584.0044"/><polygon fill="#000000" points="164,580.0044,154,584.0044,164,588.0044,160,584.0044" style="stroke:#000000;stroke-width:1.0;"/><text fill="#000000" font-family="Verdana" font-size="13" lengthAdjust="spacing" textLength="206" x="166" y="566.2749">Update content with messages</text><line style="stroke:#000000;stroke-width:1.0;" x1="154" x2="201" y1="610.8037" y2="610.8037"/><line style="stroke:#000000;stroke-width:1.0;" x1="201" x2="201" y1="610.8037" y2="623.8037"/><line style="stroke:#000000;stroke-width:1.0;" x1="160" x2="201" y1="623.8037" y2="623.8037"/><polygon fill="#000000" points="170,619.8037,160,623.8037,170,627.8037,166,623.8037" style="stroke:#000000;stroke-width:1.0;"/><text fill="#000000" font-family="Verdana" font-size="13" lengthAdjust="spacing" textLength="112" x="166" y="606.0742">Start countdown</text><path d="M83,643.8037 L159,643.8037 L159,651.603 L149,661.603 L83,661.603 L83,643.8037 " fill="#FFFFFF" style="stroke:#000000;stroke-width:1.0;"/><rect fill="none" height="384.7925" style="stroke:#000000;stroke-width:1.0;" width="581" x="83" y="643.8037"/><text fill="#000000" font-family="Verdana" font-size="13" font-weight="bold" lengthAdjust="spacing" textLength="31" x="98" y="657.8735">loop</text><text fill="#000000" font-family="Verdana" font-size="11" font-weight="bold" lengthAdjust="spacing" textLength="83" x="174" y="656.8628">[Countdown]</text><line style="stroke:#000000;stroke-width:1.0;" x1="159" x2="206" y1="678.4023" y2="678.4023"/><line style="stroke:#000000;stroke-width:1.0;" x1="206" x2="206" y1="678.4023" y2="691.4023"/><line style="stroke:#000000;stroke-width:1.0;" x1="165" x2="206" y1="691.4023" y2="691.4023"/><polygon fill="#000000" points="175,687.4023,165,691.4023,175,695.4023,171,691.4023" style="stroke:#000000;stroke-width:1.0;"/><text fill="#000000" font-family="Verdana" font-size="13" lengthAdjust="spacing" textLength="139" x="171" y="673.6729">Decrease countdown</text><polygon fill="#000000" points="394,722.2017,404,726.2017,394,730.2017,398,726.2017" style="stroke:#000000;stroke-width:1.0;"/><line style="stroke:#000000;stroke-width:1.0;" x1="164" x2="400" y1="726.2017" y2="726.2017"/><text fill="#000000" font-family="Verdana" font-size="13" lengthAdjust="spacing" textLength="149" x="171" y="721.4722">Load content for topic</text><line style="stroke:#000000;stroke-width:1.0;" x1="406" x2="448" y1="756.001" y2="756.001"/><line style="stroke:#000000;stroke-width:1.0;" x1="448" x2="448" y1="756.001" y2="769.001"/><line style="stroke:#000000;stroke-width:1.0;" x1="407" x2="448" y1="769.001" y2="769.001"/><polygon fill="#000000" points="417,765.001,407,769.001,417,773.001,413,769.001" style="stroke:#000000;stroke-width:1.0;"/><text fill="#000000" font-family="Verdana" font-size="13" lengthAdjust="spacing" textLength="149" x="413" y="751.2715">Load content for topic</text><polygon fill="#000000" points="592,794.8003,602,798.8003,592,802.8003,596,798.8003" style="stroke:#000000;stroke-width:1.0;"/><line style="stroke:#000000;stroke-width:1.0;" x1="406" x2="598" y1="798.8003" y2="798.8003"/><text fill="#000000" font-family="Verdana" font-size="13" lengthAdjust="spacing" textLength="169" x="413" y="794.0708">Query messages for topic</text><polygon fill="#000000" points="417,824.5996,407,828.5996,417,832.5996,413,828.5996" style="stroke:#000000;stroke-width:1.0;"/><line style="stroke:#000000;stroke-width:1.0;stroke-dasharray:2.0,2.0;" x1="411" x2="603" y1="828.5996" y2="828.5996"/><text fill="#000000" font-family="Verdana" font-size="13" lengthAdjust="spacing" textLength="112" x="423" y="823.8701">Return messages</text><polygon fill="#000000" points="175,854.3989,165,858.3989,175,862.3989,171,858.3989" style="stroke:#000000;stroke-width:1.0;"/><line style="stroke:#000000;stroke-width:1.0;stroke-dasharray:2.0,2.0;" x1="169" x2="405" y1="858.3989" y2="858.3989"/><text fill="#000000" font-family="Verdana" font-size="13" lengthAdjust="spacing" textLength="112" x="181" y="853.6694">Return messages</text><line style="stroke:#000000;stroke-width:1.0;" x1="164" x2="206" y1="893.1982" y2="893.1982"/><line style="stroke:#000000;stroke-width:1.0;" x1="206" x2="206" y1="893.1982" y2="906.1982"/><line style="stroke:#000000;stroke-width:1.0;" x1="159" x2="206" y1="906.1982" y2="906.1982"/><polygon fill="#000000" points="169,902.1982,159,906.1982,169,910.1982,165,906.1982" style="stroke:#000000;stroke-width:1.0;"/><text fill="#000000" font-family="Verdana" font-size="13" lengthAdjust="spacing" textLength="206" x="171" y="888.4688">Update content with messages</text><path d="M93,916.1982 L157,916.1982 L157,923.9976 L147,933.9976 L93,933.9976 L93,916.1982 " fill="#FFFFFF" style="stroke:#000000;stroke-width:1.0;"/><rect fill="none" height="105.3979" style="stroke:#000000;stroke-width:1.0;" width="236" x="93" y="916.1982"/><text fill="#000000" font-family="Verdana" font-size="13" font-weight="bold" lengthAdjust="spacing" textLength="19" x="108" y="930.2681">alt</text><text fill="#000000" font-family="Verdana" font-size="11" font-weight="bold" lengthAdjust="spacing" textLength="152" x="172" y="929.2573">[Countdown reached 0]</text><line style="stroke:#000000;stroke-width:1.0;" x1="159" x2="201" y1="955.7969" y2="955.7969"/><line style="stroke:#000000;stroke-width:1.0;" x1="201" x2="201" y1="955.7969" y2="968.7969"/><line style="stroke:#000000;stroke-width:1.0;" x1="160" x2="201" y1="968.7969" y2="968.7969"/><polygon fill="#000000" points="170,964.7969,160,968.7969,170,972.7969,166,968.7969" style="stroke:#000000;stroke-width:1.0;"/><text fill="#000000" font-family="Verdana" font-size="13" lengthAdjust="spacing" textLength="115" x="166" y="951.0674">Reset countdown</text><line style="stroke:#000000;stroke-width:1.0;stroke-dasharray:2.0,2.0;" x1="93" x2="329" y1="977.7969" y2="977.7969"/><line style="stroke:#000000;stroke-width:1.0;" x1="159" x2="201" y1="1000.5962" y2="1000.5962"/><line style="stroke:#000000;stroke-width:1.0;" x1="201" x2="201" y1="1000.5962" y2="1013.5962"/><line style="stroke:#000000;stroke-width:1.0;" x1="160" x2="201" y1="1013.5962" y2="1013.5962"/><polygon fill="#000000" points="170,1009.5962,160,1013.5962,170,1017.5962,166,1013.5962" style="stroke:#000000;stroke-width:1.0;"/><text fill="#000000" font-family="Verdana" font-size="13" lengthAdjust="spacing" textLength="136" x="166" y="995.8667">Continue countdown</text><!--MD5=[8dccabd424b33a5432a38a9768ccce93]
@startuml
!theme plain 
skinparam monochrome true

actor 用户 as user
participant Browser
participant Server

user -> Browser : access page
Browser -> Server: GET http://localhost:8080/topics
Server -> Database: Query topics
Database - -> Server: Return topics
Server - -> Browser: Return topics

activate Browser

Browser -> Browser: Render topic list

loop Topics
    activate Browser
    Browser -> Browser: Create <li> element for each topic
    activate Server
    user -> Browser: Click <li>
    Browser -> Server: Click on topic
    Server -> Server: Load content for topic
    Server -> Database: Query messages for topic
    Database - -> Server: Return messages
    Server - -> Browser: Return messages
    deactivate Server
    Browser -> Browser: Update content with messages
    deactivate Browser
end

Browser -> Browser: Start countdown

loop Countdown
    activate Browser
    Browser -> Browser: Decrease countdown
    activate Browser
    Browser -> Server: Load content for topic
    Server -> Server: Load content for topic
    Server -> Database: Query messages for topic
    Database - -> Server: Return messages
    Server - -> Browser: Return messages
    deactivate Server
    Browser -> Browser: Update content with messages
    deactivate Browser

    alt Countdown reached 0
        Browser -> Browser: Reset countdown
    else
        Browser -> Browser: Continue countdown
    end

end

deactivate Browser

@enduml

@startuml







<style>
  root {
    BackgroundColor white
    FontColor black
    FontName Verdana
    HyperLinkColor blue
    LineColor black
    LineThickness 1
    Margin 5
  }
  caption {
    LineThickness 0
  }
  footer {
    LineThickness 0
  }
  header {
    LineThickness 0
  }
  node {
    MaximumWidth 300
  }
  title {
    FontSize 22
    LineThickness 0
  }
</style>

skinparam ArrowLollipopColor black
skinparam BackgroundColor white
skinparam DefaultFontName Verdana
skinparam DefaultMonospacedFontName Courier
skinparam LifelineStrategy nosolid
skinparam ParticipantPadding 10
skinparam SequenceLifeLineBorderColor black
skinparam Shadowing false
skinparam UseBetaStyle true

skinparam Activity {
  BackgroundColor white
  BarColor black
  BorderColor black
  FontColor black
  FontName Verdana
}
skinparam Boundary {
  FontColor black
}
skinparam Box {
  Padding 5
}
skinparam CircledCharacter {
  FontColor black
  FontName Courier
  Radius 9
}
skinparam Class {
  BackgroundColor white
  BorderColor black
  FontColor black
  FontName Verdana
}
skinparam ClassAttribute {
  FontColor black
  FontName Verdana
}
skinparam ClassStereotype {
  FontColor black
  FontName Verdana
}
skinparam Footer {
  FontColor black
  FontName Verdana
}
skinparam Header {
  FontColor black
  FontName Verdana
}
skinparam Hyperlink {
  Color blue
}
skinparam IconPackage {
  Color black
  BackgroundColor white
}
skinparam IconPrivate {
  Color black
  BackgroundColor white
}
skinparam IconProtected {
  Color black
  BackgroundColor white
}
skinparam IconPublic {
  Color black
  BackgroundColor white
}
skinparam Note {
  FontColor black
  FontName Verdana
}
skinparam Object {
  BorderColor black
}
skinparam Package {
  BorderColor black
  FontColor black
  FontName Verdana
}
skinparam State {
  BackgroundColor white
  BorderColor black
}
skinparam StereotypeA {
  BackgroundColor white
  BorderColor black
}
skinparam StereotypeC {
  BackgroundColor white
  BorderColor black
}
skinparam StereotypeE {
  BackgroundColor white
  BorderColor black
}
skinparam StereotypeI {
  BackgroundColor white
  BorderColor black
}
skinparam StereotypeN {
  BackgroundColor white
  BorderColor black
}
skinparam UseCaseStereoType {
  FontColor black
  FontName Verdana
}
skinparam monochrome true

actor 用户 as user
participant Browser
participant Server

user -> Browser : access page
Browser -> Server: GET http://localhost:8080/topics
Server -> Database: Query topics
Database - -> Server: Return topics
Server - -> Browser: Return topics

activate Browser

Browser -> Browser: Render topic list

loop Topics
    activate Browser
    Browser -> Browser: Create <li> element for each topic
    activate Server
    user -> Browser: Click <li>
    Browser -> Server: Click on topic
    Server -> Server: Load content for topic
    Server -> Database: Query messages for topic
    Database - -> Server: Return messages
    Server - -> Browser: Return messages
    deactivate Server
    Browser -> Browser: Update content with messages
    deactivate Browser
end

Browser -> Browser: Start countdown

loop Countdown
    activate Browser
    Browser -> Browser: Decrease countdown
    activate Browser
    Browser -> Server: Load content for topic
    Server -> Server: Load content for topic
    Server -> Database: Query messages for topic
    Database - -> Server: Return messages
    Server - -> Browser: Return messages
    deactivate Server
    Browser -> Browser: Update content with messages
    deactivate Browser

    alt Countdown reached 0
        Browser -> Browser: Reset countdown
    else
        Browser -> Browser: Continue countdown
    end

end

deactivate Browser

@enduml

PlantUML version 1.2022.7(Tue Aug 23 01:01:30 CST 2022)
(GPL source distribution)
Java Runtime: Java(TM) SE Runtime Environment
JVM: Java HotSpot(TM) 64-Bit Server VM
Default Encoding: GBK
Language: zh
Country: CN
--></g></svg>