<?xml version="1.0" encoding="UTF-8" standalone="no"?><svg xmlns="http://www.w3.org/2000/svg" xmlns:xlink="http://www.w3.org/1999/xlink" contentStyleType="text/css" height="685px" preserveAspectRatio="none" style="width:479px;height:685px;background:#FFFFFF;" version="1.1" viewBox="0 0 479 685" width="479px" zoomAndPan="magnify"><defs/><g><!--MD5=[725911362b23b0244e734dc153c91a2c]
cluster 服务器--><g id="cluster_服务器"><path d="M124.5,12.1191 L191.5,12.1191 A3.75,3.75 0 0 1 194,14.6191 L201,44.8564 L296.5,44.8564 A2.5,2.5 0 0 1 299,47.3564 L299,171.6191 A2.5,2.5 0 0 1 296.5,174.1191 L124.5,174.1191 A2.5,2.5 0 0 1 122,171.6191 L122,14.6191 A2.5,2.5 0 0 1 124.5,12.1191 " fill="#FFFFFF" style="stroke:#000000;stroke-width:1.0;"/><line style="stroke:#000000;stroke-width:1.0;" x1="122" x2="201" y1="44.8564" y2="44.8564"/><text fill="#000000" font-family="Verdana" font-size="22" font-weight="bold" lengthAdjust="spacing" textLength="66" x="126" y="36.2373">服务器</text></g><!--MD5=[f5b1f825406a9a9bbf816370bdea0604]
cluster 物联网平台--><g id="cluster_物联网平台"><path d="M113,198.1191 L224,198.1191 A3.75,3.75 0 0 1 226.5,200.6191 L233.5,230.8564 L308,230.8564 A2.5,2.5 0 0 1 310.5,233.3564 L310.5,424.6191 A2.5,2.5 0 0 1 308,427.1191 L113,427.1191 A2.5,2.5 0 0 1 110.5,424.6191 L110.5,200.6191 A2.5,2.5 0 0 1 113,198.1191 " fill="#FFFFFF" style="stroke:#000000;stroke-width:1.0;"/><line style="stroke:#000000;stroke-width:1.0;" x1="110.5" x2="233.5" y1="230.8564" y2="230.8564"/><text fill="#000000" font-family="Verdana" font-size="22" font-weight="bold" lengthAdjust="spacing" textLength="110" x="114.5" y="222.2373">物联网平台</text></g><!--MD5=[2a16b243eaae829fc3f9cd297730a82d]
cluster 设备--><g id="cluster_设备"><path d="M125.5,451.1191 L170.5,451.1191 A3.75,3.75 0 0 1 173,453.6191 L180,483.8564 L470,483.8564 A2.5,2.5 0 0 1 472.5,486.3564 L472.5,675.6191 A2.5,2.5 0 0 1 470,678.1191 L125.5,678.1191 A2.5,2.5 0 0 1 123,675.6191 L123,453.6191 A2.5,2.5 0 0 1 125.5,451.1191 " fill="#FFFFFF" style="stroke:#000000;stroke-width:1.0;"/><line style="stroke:#000000;stroke-width:1.0;" x1="123" x2="180" y1="483.8564" y2="483.8564"/><text fill="#000000" font-family="Verdana" font-size="22" font-weight="bold" lengthAdjust="spacing" textLength="44" x="127" y="475.2373">设备</text></g><g id="elem_exploredata"><ellipse cx="210.5625" cy="74.0316" fill="#FFFFFF" rx="72.5625" ry="16.9125" style="stroke:#000000;stroke-width:1.0;"/><text fill="#000000" font-family="Verdana" font-size="14" lengthAdjust="spacing" textLength="98" x="160.2528" y="77.9382">浏览器数据显示</text></g><g id="elem_api"><ellipse cx="210.4474" cy="142.0086" fill="#FFFFFF" rx="67.4474" ry="15.8895" style="stroke:#000000;stroke-width:1.0;"/><text fill="#000000" font-family="Verdana" font-size="14" lengthAdjust="spacing" textLength="84" x="165.4474" y="146.2962">外部访问接口</text></g><g id="elem_devicemanage"><ellipse cx="210.6861" cy="258.176" fill="#FFFFFF" rx="51.1861" ry="15.0569" style="stroke:#000000;stroke-width:1.0;"/><text fill="#000000" font-family="Verdana" font-size="14" lengthAdjust="spacing" textLength="56" x="180.4615" y="262.3005">设备管理</text></g><g id="elem_productmanage"><ellipse cx="210.6861" cy="323.176" fill="#FFFFFF" rx="51.1861" ry="15.0569" style="stroke:#000000;stroke-width:1.0;"/><text fill="#000000" font-family="Verdana" font-size="14" lengthAdjust="spacing" textLength="56" x="180.4615" y="327.3005">产品管理</text></g><g id="elem_otheriot"><ellipse cx="210.5578" cy="392.3307" fill="#FFFFFF" rx="84.0578" ry="19.2116" style="stroke:#000000;stroke-width:1.0;"/><text fill="#000000" font-family="Verdana" font-size="14" lengthAdjust="spacing" textLength="126" x="147.5578" y="395.8986">其他物联网平台功能</text></g><g id="elem_OLEDdata"><ellipse cx="210.4195" cy="645.303" fill="#FFFFFF" rx="71.4195" ry="16.6839" style="stroke:#000000;stroke-width:1.0;"/><text fill="#000000" font-family="Verdana" font-size="14" lengthAdjust="spacing" textLength="95" x="160.9897" y="649.3563">OLED数据展示</text></g><g id="elem_envodata"><ellipse cx="210.4474" cy="577.0086" fill="#FFFFFF" rx="67.4474" ry="15.8895" style="stroke:#000000;stroke-width:1.0;"/><text fill="#000000" font-family="Verdana" font-size="14" lengthAdjust="spacing" textLength="84" x="165.4474" y="581.2962">环境数据获取</text></g><g id="elem_wificonnect"><ellipse cx="210.4169" cy="511.1815" fill="#FFFFFF" rx="51.9169" ry="15.0624" style="stroke:#000000;stroke-width:1.0;"/><text fill="#000000" font-family="Verdana" font-size="14" lengthAdjust="spacing" textLength="57" x="179.4307" y="515.3625">WiFi连接</text></g><g id="elem_autorestart"><ellipse cx="405.6861" cy="577.176" fill="#FFFFFF" rx="51.1861" ry="15.0569" style="stroke:#000000;stroke-width:1.0;"/><text fill="#000000" font-family="Verdana" font-size="14" lengthAdjust="spacing" textLength="56" x="375.4615" y="581.3005">自动重启</text></g><!--MD5=[8fc3522a43f8c7199df5e09e5bb0188e]
entity user--><g id="elem_user"><ellipse cx="38" cy="268.6191" fill="#FFFFFF" rx="16" ry="16" style="stroke:#000000;stroke-width:1.5;"/><path d="M38,288.6191 C42,288.6191 45,288.6191 49,284.6191 C57,284.6191 65,292.6191 65,300.6191 L65,304.6191 C65,308.6191 61,312.6191 57,312.6191 L19,312.6191 C15,312.6191 11,308.6191 11,304.6191 L11,300.6191 C11,292.6191 19,284.6191 27,284.6191 C31,288.6191 34,288.6191 38,288.6191 " fill="#FFFFFF" style="stroke:#000000;stroke-width:1.5;"/><text fill="#000000" font-family="Verdana" font-size="14" lengthAdjust="spacing" textLength="28" x="24" y="328.1943">用户</text></g><!--MD5=[cb7e36ff50829d9fbd04e944d6e11477]
link user to exploredata--><g id="link_user_exploredata"><path d="M42.56,250.9791 C48.32,209.7091 63.35,146.2491 102.5,108.1191 C113.79,97.1191 128.62,89.6791 143.63,84.6491 " fill="none" id="user-to-exploredata" style="stroke:#000000;stroke-width:1.0;"/><polygon fill="#000000" points="148.73,83.0291,138.9417,81.939,143.9642,84.5416,141.3616,89.5642,148.73,83.0291" style="stroke:#000000;stroke-width:1.0;"/></g><!--MD5=[149e5299ad5401418660e40799097229]
link user to OLEDdata--><g id="link_user_OLEDdata"><path d="M42,331.2691 C48.47,407.4891 66.2,569.1991 102.5,610.1191 C113.25,622.2391 128.27,630.1891 143.65,635.3791 " fill="none" id="user-to-OLEDdata" style="stroke:#000000;stroke-width:1.0;"/><polygon fill="#000000" points="148.44,636.9091,141.0894,630.3541,143.6784,635.3837,138.6487,637.9727,148.44,636.9091" style="stroke:#000000;stroke-width:1.0;"/></g><!--MD5=[636ed02fa44a9e83d7c954193639af47]
link user to devicemanage--><g id="link_user_devicemanage"><path d="M66.77,285.7391 C92.55,280.7591 131.46,273.2291 162.14,267.2891 " fill="none" id="user-to-devicemanage" style="stroke:#000000;stroke-width:1.0;"/><polygon fill="#000000" points="167.38,266.2691,157.7875,264.0366,162.4696,267.2113,159.2949,271.8933,167.38,266.2691" style="stroke:#000000;stroke-width:1.0;"/></g><!--MD5=[368a8d36ca26a6c55b0da8e1e6cbeb86]
link user to productmanage--><g id="link_user_productmanage"><path d="M66.77,296.3291 C92.46,301.1491 131.19,308.4191 161.82,314.1691 " fill="none" id="user-to-productmanage" style="stroke:#000000;stroke-width:1.0;"/><polygon fill="#000000" points="167.05,315.1491,158.9335,309.5704,162.1343,314.2346,157.4702,317.4355,167.05,315.1491" style="stroke:#000000;stroke-width:1.0;"/></g><!--MD5=[171bbbeb97f5c35b5c0d3208ac28312a]
link user to api--><g id="link_user_api"><path d="M66.75,261.7091 C77.62,250.5791 90.37,237.9791 102.5,227.1191 C129.62,202.8291 162.67,177.1191 184.8,160.4191 " fill="none" id="user-to-api" style="stroke:#000000;stroke-width:1.0;"/><polygon fill="#000000" points="188.8,157.4091,179.2038,159.6256,184.8052,160.416,184.0148,166.0174,188.8,157.4091" style="stroke:#000000;stroke-width:1.0;"/></g><!--MD5=[c23609195982500a3ea8df5a13a3dacf]
link user to otheriot--><g id="link_user_otheriot"><path d="M66.55,324.4991 C76.91,335.4291 89.38,346.8691 102.5,355.1191 C116.53,363.9391 132.91,370.9591 148.59,376.4091 " fill="none" id="user-to-otheriot" style="stroke:#000000;stroke-width:1.0;"/><polygon fill="#000000" points="153.43,378.0491,146.1869,371.3755,148.6938,376.4466,143.6227,378.9535,153.43,378.0491" style="stroke:#000000;stroke-width:1.0;"/></g><!--MD5=[5206590e4246d4fdc2ec8af0bcb543f7]
@startuml 
!theme plain
left to right direction
skinparam actorStyle awesome
actor :用户: as user





package 服务器 {
    usecase (浏览器数据显示) as exploredata
    usecase (外部访问接口) as api 
}

package 物联网平台 {
    usecase (设备管理) as devicemanage
    usecase (产品管理) as productmanage
    usecase (其他物联网平台功能) as otheriot
}

package 设备 {
    usecase (OLED数据展示) as OLEDdata
    usecase (环境数据获取) as envodata
    usecase (WiFi连接) as wificonnect
    usecase (自动重启) as autorestart
}

user - -> exploredata
user - -> OLEDdata

user - -> devicemanage
user - -> productmanage
user - -> api
user - -> otheriot

@enduml

@startuml 







<style>
  root {
    BackgroundColor white
    FontColor black
    FontName Verdana
    HyperLinkColor blue
    LineColor black
    LineThickness 1
    Margin 5
  }
  caption {
    LineThickness 0
  }
  footer {
    LineThickness 0
  }
  header {
    LineThickness 0
  }
  node {
    MaximumWidth 300
  }
  title {
    FontSize 22
    LineThickness 0
  }
</style>

skinparam ArrowLollipopColor black
skinparam BackgroundColor white
skinparam DefaultFontName Verdana
skinparam DefaultMonospacedFontName Courier
skinparam LifelineStrategy nosolid
skinparam ParticipantPadding 10
skinparam SequenceLifeLineBorderColor black
skinparam Shadowing false
skinparam UseBetaStyle true

skinparam Activity {
  BackgroundColor white
  BarColor black
  BorderColor black
  FontColor black
  FontName Verdana
}
skinparam Boundary {
  FontColor black
}
skinparam Box {
  Padding 5
}
skinparam CircledCharacter {
  FontColor black
  FontName Courier
  Radius 9
}
skinparam Class {
  BackgroundColor white
  BorderColor black
  FontColor black
  FontName Verdana
}
skinparam ClassAttribute {
  FontColor black
  FontName Verdana
}
skinparam ClassStereotype {
  FontColor black
  FontName Verdana
}
skinparam Footer {
  FontColor black
  FontName Verdana
}
skinparam Header {
  FontColor black
  FontName Verdana
}
skinparam Hyperlink {
  Color blue
}
skinparam IconPackage {
  Color black
  BackgroundColor white
}
skinparam IconPrivate {
  Color black
  BackgroundColor white
}
skinparam IconProtected {
  Color black
  BackgroundColor white
}
skinparam IconPublic {
  Color black
  BackgroundColor white
}
skinparam Note {
  FontColor black
  FontName Verdana
}
skinparam Object {
  BorderColor black
}
skinparam Package {
  BorderColor black
  FontColor black
  FontName Verdana
}
skinparam State {
  BackgroundColor white
  BorderColor black
}
skinparam StereotypeA {
  BackgroundColor white
  BorderColor black
}
skinparam StereotypeC {
  BackgroundColor white
  BorderColor black
}
skinparam StereotypeE {
  BackgroundColor white
  BorderColor black
}
skinparam StereotypeI {
  BackgroundColor white
  BorderColor black
}
skinparam StereotypeN {
  BackgroundColor white
  BorderColor black
}
skinparam UseCaseStereoType {
  FontColor black
  FontName Verdana
}
left to right direction
skinparam actorStyle awesome
actor :用户: as user





package 服务器 {
    usecase (浏览器数据显示) as exploredata
    usecase (外部访问接口) as api 
}

package 物联网平台 {
    usecase (设备管理) as devicemanage
    usecase (产品管理) as productmanage
    usecase (其他物联网平台功能) as otheriot
}

package 设备 {
    usecase (OLED数据展示) as OLEDdata
    usecase (环境数据获取) as envodata
    usecase (WiFi连接) as wificonnect
    usecase (自动重启) as autorestart
}

user - -> exploredata
user - -> OLEDdata

user - -> devicemanage
user - -> productmanage
user - -> api
user - -> otheriot

@enduml

PlantUML version 1.2022.7(Tue Aug 23 01:01:30 CST 2022)
(GPL source distribution)
Java Runtime: Java(TM) SE Runtime Environment
JVM: Java HotSpot(TM) 64-Bit Server VM
Default Encoding: GBK
Language: zh
Country: CN
--></g></svg>