<?xml version="1.0" encoding="UTF-8" standalone="no"?><svg xmlns="http://www.w3.org/2000/svg" xmlns:xlink="http://www.w3.org/1999/xlink" contentStyleType="text/css" height="423px" preserveAspectRatio="none" style="width:575px;height:423px;background:#FFFFFF;" version="1.1" viewBox="0 0 575 423" width="575px" zoomAndPan="magnify"><defs/><g><line style="stroke:#000000;stroke-width:1.0;stroke-dasharray:5.0,5.0;" x1="48" x2="48" y1="83.0146" y2="341.4092"/><line style="stroke:#000000;stroke-width:1.0;stroke-dasharray:5.0,5.0;" x1="162" x2="162" y1="83.0146" y2="341.4092"/><line style="stroke:#000000;stroke-width:1.0;stroke-dasharray:5.0,5.0;" x1="264" x2="264" y1="83.0146" y2="341.4092"/><line style="stroke:#000000;stroke-width:1.0;stroke-dasharray:5.0,5.0;" x1="353" x2="353" y1="83.0146" y2="341.4092"/><line style="stroke:#000000;stroke-width:1.0;stroke-dasharray:5.0,5.0;" x1="453" x2="453" y1="83.0146" y2="341.4092"/><line style="stroke:#000000;stroke-width:1.0;stroke-dasharray:5.0,5.0;" x1="555" x2="555" y1="83.0146" y2="341.4092"/><text fill="#000000" font-family="Verdana" font-size="14" lengthAdjust="spacing" textLength="70" x="10" y="80.0752">物联网平台</text><ellipse cx="48" cy="14" fill="#FFFFFF" rx="8" ry="8" style="stroke:#000000;stroke-width:1.0;"/><path d="M48,22 L48,49 M35,30 L61,30 M48,49 L35,64 M48,49 L61,64 " fill="none" style="stroke:#000000;stroke-width:1.0;"/><text fill="#000000" font-family="Verdana" font-size="14" lengthAdjust="spacing" textLength="70" x="10" y="354.4844">物联网平台</text><ellipse cx="48" cy="366.4238" fill="#FFFFFF" rx="8" ry="8" style="stroke:#000000;stroke-width:1.0;"/><path d="M48,374.4238 L48,401.4238 M35,382.4238 L61,382.4238 M48,401.4238 L35,416.4238 M48,401.4238 L61,416.4238 " fill="none" style="stroke:#000000;stroke-width:1.0;"/><rect fill="#FFFFFF" height="31.0146" rx="2.5" ry="2.5" style="stroke:#000000;stroke-width:1.0;" width="96" x="114" y="51"/><text fill="#000000" font-family="Verdana" font-size="14" lengthAdjust="spacing" textLength="82" x="121" y="72.0752">AMQP客户端</text><rect fill="#FFFFFF" height="31.0146" rx="2.5" ry="2.5" style="stroke:#000000;stroke-width:1.0;" width="96" x="114" y="340.4092"/><text fill="#000000" font-family="Verdana" font-size="14" lengthAdjust="spacing" textLength="82" x="121" y="361.4844">AMQP客户端</text><text fill="#000000" font-family="Verdana" font-size="14" lengthAdjust="spacing" textLength="42" x="240" y="80.0752">数据库</text><path d="M246,30 C246,20 264,20 264,20 C264,20 282,20 282,30 L282,56 C282,66 264,66 264,66 C264,66 246,66 246,56 L246,30 " fill="#FFFFFF" style="stroke:#000000;stroke-width:1.5;"/><path d="M246,30 C246,40 264,40 264,40 C264,40 282,40 282,30 " fill="none" style="stroke:#000000;stroke-width:1.5;"/><text fill="#000000" font-family="Verdana" font-size="14" lengthAdjust="spacing" textLength="42" x="240" y="354.4844">数据库</text><path d="M246,367.4238 C246,357.4238 264,357.4238 264,357.4238 C264,357.4238 282,357.4238 282,367.4238 L282,393.4238 C282,403.4238 264,403.4238 264,403.4238 C264,403.4238 246,403.4238 246,393.4238 L246,367.4238 " fill="#FFFFFF" style="stroke:#000000;stroke-width:1.5;"/><path d="M246,367.4238 C246,377.4238 264,377.4238 264,377.4238 C264,377.4238 282,377.4238 282,367.4238 " fill="none" style="stroke:#000000;stroke-width:1.5;"/><rect fill="#FFFFFF" height="31.0146" rx="2.5" ry="2.5" style="stroke:#000000;stroke-width:1.0;" width="84" x="311" y="51"/><text fill="#000000" font-family="Verdana" font-size="14" lengthAdjust="spacing" textLength="70" x="318" y="72.0752">业务服务器</text><rect fill="#FFFFFF" height="31.0146" rx="2.5" ry="2.5" style="stroke:#000000;stroke-width:1.0;" width="84" x="311" y="340.4092"/><text fill="#000000" font-family="Verdana" font-size="14" lengthAdjust="spacing" textLength="70" x="318" y="361.4844">业务服务器</text><rect fill="#FFFFFF" height="31.0146" rx="2.5" ry="2.5" style="stroke:#000000;stroke-width:1.0;" width="56" x="425" y="51"/><text fill="#000000" font-family="Verdana" font-size="14" lengthAdjust="spacing" textLength="42" x="432" y="72.0752">浏览器</text><rect fill="#FFFFFF" height="31.0146" rx="2.5" ry="2.5" style="stroke:#000000;stroke-width:1.0;" width="56" x="425" y="340.4092"/><text fill="#000000" font-family="Verdana" font-size="14" lengthAdjust="spacing" textLength="42" x="432" y="361.4844">浏览器</text><text fill="#000000" font-family="Verdana" font-size="14" lengthAdjust="spacing" textLength="28" x="538" y="80.0752">用户</text><ellipse cx="555" cy="14" fill="#FFFFFF" rx="8" ry="8" style="stroke:#000000;stroke-width:1.0;"/><path d="M555,22 L555,49 M542,30 L568,30 M555,49 L542,64 M555,49 L568,64 " fill="none" style="stroke:#000000;stroke-width:1.0;"/><text fill="#000000" font-family="Verdana" font-size="14" lengthAdjust="spacing" textLength="28" x="538" y="354.4844">用户</text><ellipse cx="555" cy="366.4238" fill="#FFFFFF" rx="8" ry="8" style="stroke:#000000;stroke-width:1.0;"/><path d="M555,374.4238 L555,401.4238 M542,382.4238 L568,382.4238 M555,401.4238 L542,416.4238 M555,401.4238 L568,416.4238 " fill="none" style="stroke:#000000;stroke-width:1.0;"/><line style="stroke:#000000;stroke-width:1.0;" x1="160" x2="150" y1="114.814" y2="110.814"/><line style="stroke:#000000;stroke-width:1.0;" x1="160" x2="150" y1="114.814" y2="118.814"/><line style="stroke:#000000;stroke-width:1.0;" x1="48" x2="161" y1="114.814" y2="114.814"/><text fill="#000000" font-family="Verdana" font-size="13" lengthAdjust="spacing" textLength="90" x="55" y="110.0845">发送AMQP消息</text><line style="stroke:#000000;stroke-width:1.0;" x1="262" x2="252" y1="144.6133" y2="140.6133"/><line style="stroke:#000000;stroke-width:1.0;" x1="262" x2="252" y1="144.6133" y2="148.6133"/><line style="stroke:#000000;stroke-width:1.0;" x1="162" x2="263" y1="144.6133" y2="144.6133"/><text fill="#000000" font-family="Verdana" font-size="13" lengthAdjust="spacing" textLength="78" x="169" y="139.8838">存储消息内容</text><polygon fill="#000000" points="464,170.4126,454,174.4126,464,178.4126,460,174.4126" style="stroke:#000000;stroke-width:1.0;"/><line style="stroke:#000000;stroke-width:1.0;" x1="458" x2="554" y1="174.4126" y2="174.4126"/><text fill="#000000" font-family="Verdana" font-size="13" lengthAdjust="spacing" textLength="78" x="470" y="169.6831">访问相应地址</text><polygon fill="#000000" points="364,200.2119,354,204.2119,364,208.2119,360,204.2119" style="stroke:#000000;stroke-width:1.0;"/><line style="stroke:#000000;stroke-width:1.0;" x1="358" x2="452" y1="204.2119" y2="204.2119"/><text fill="#000000" font-family="Verdana" font-size="13" lengthAdjust="spacing" textLength="52" x="370" y="199.4824">发送请求</text><polygon fill="#000000" points="275,230.0112,265,234.0112,275,238.0112,271,234.0112" style="stroke:#000000;stroke-width:1.0;"/><line style="stroke:#000000;stroke-width:1.0;" x1="269" x2="352" y1="234.0112" y2="234.0112"/><text fill="#000000" font-family="Verdana" font-size="13" lengthAdjust="spacing" textLength="65" x="281" y="229.2817">访问数据库</text><polygon fill="#000000" points="341,259.8105,351,263.8105,341,267.8105,345,263.8105" style="stroke:#000000;stroke-width:1.0;"/><line style="stroke:#000000;stroke-width:1.0;stroke-dasharray:2.0,2.0;" x1="264" x2="347" y1="263.8105" y2="263.8105"/><text fill="#000000" font-family="Verdana" font-size="13" lengthAdjust="spacing" textLength="52" x="271" y="259.0811">返回数据</text><polygon fill="#000000" points="441,289.6099,451,293.6099,441,297.6099,445,293.6099" style="stroke:#000000;stroke-width:1.0;"/><line style="stroke:#000000;stroke-width:1.0;stroke-dasharray:2.0,2.0;" x1="353" x2="447" y1="293.6099" y2="293.6099"/><text fill="#000000" font-family="Verdana" font-size="13" lengthAdjust="spacing" textLength="52" x="360" y="288.8804">返回数据</text><polygon fill="#000000" points="543,319.4092,553,323.4092,543,327.4092,547,323.4092" style="stroke:#000000;stroke-width:1.0;"/><line style="stroke:#000000;stroke-width:1.0;stroke-dasharray:2.0,2.0;" x1="453" x2="549" y1="323.4092" y2="323.4092"/><text fill="#000000" font-family="Verdana" font-size="13" lengthAdjust="spacing" textLength="52" x="460" y="318.6797">返回数据</text><!--MD5=[1dabe2e664e8aa22b27a2c36cc90e067]
@startuml
!theme plain

actor 物联网平台 as iot 
participant AMQP客户端 as amqpcli
database 数据库 as db 
participant 业务服务器 as ss 
participant 浏览器 as explore 
actor 用户 as user 

iot ->> amqpcli : 发送AMQP消息
amqpcli ->> db : 存储消息内容

user -> explore : 访问相应地址
explore -> ss : 发送请求
ss -> db : 访问数据库
db - -> ss : 返回数据
ss - -> explore : 返回数据
explore - -> user : 返回数据

@enduml

@startuml







<style>
  root {
    BackgroundColor white
    FontColor black
    FontName Verdana
    HyperLinkColor blue
    LineColor black
    LineThickness 1
    Margin 5
  }
  caption {
    LineThickness 0
  }
  footer {
    LineThickness 0
  }
  header {
    LineThickness 0
  }
  node {
    MaximumWidth 300
  }
  title {
    FontSize 22
    LineThickness 0
  }
</style>

skinparam ArrowLollipopColor black
skinparam BackgroundColor white
skinparam DefaultFontName Verdana
skinparam DefaultMonospacedFontName Courier
skinparam LifelineStrategy nosolid
skinparam ParticipantPadding 10
skinparam SequenceLifeLineBorderColor black
skinparam Shadowing false
skinparam UseBetaStyle true

skinparam Activity {
  BackgroundColor white
  BarColor black
  BorderColor black
  FontColor black
  FontName Verdana
}
skinparam Boundary {
  FontColor black
}
skinparam Box {
  Padding 5
}
skinparam CircledCharacter {
  FontColor black
  FontName Courier
  Radius 9
}
skinparam Class {
  BackgroundColor white
  BorderColor black
  FontColor black
  FontName Verdana
}
skinparam ClassAttribute {
  FontColor black
  FontName Verdana
}
skinparam ClassStereotype {
  FontColor black
  FontName Verdana
}
skinparam Footer {
  FontColor black
  FontName Verdana
}
skinparam Header {
  FontColor black
  FontName Verdana
}
skinparam Hyperlink {
  Color blue
}
skinparam IconPackage {
  Color black
  BackgroundColor white
}
skinparam IconPrivate {
  Color black
  BackgroundColor white
}
skinparam IconProtected {
  Color black
  BackgroundColor white
}
skinparam IconPublic {
  Color black
  BackgroundColor white
}
skinparam Note {
  FontColor black
  FontName Verdana
}
skinparam Object {
  BorderColor black
}
skinparam Package {
  BorderColor black
  FontColor black
  FontName Verdana
}
skinparam State {
  BackgroundColor white
  BorderColor black
}
skinparam StereotypeA {
  BackgroundColor white
  BorderColor black
}
skinparam StereotypeC {
  BackgroundColor white
  BorderColor black
}
skinparam StereotypeE {
  BackgroundColor white
  BorderColor black
}
skinparam StereotypeI {
  BackgroundColor white
  BorderColor black
}
skinparam StereotypeN {
  BackgroundColor white
  BorderColor black
}
skinparam UseCaseStereoType {
  FontColor black
  FontName Verdana
}

actor 物联网平台 as iot 
participant AMQP客户端 as amqpcli
database 数据库 as db 
participant 业务服务器 as ss 
participant 浏览器 as explore 
actor 用户 as user 

iot ->> amqpcli : 发送AMQP消息
amqpcli ->> db : 存储消息内容

user -> explore : 访问相应地址
explore -> ss : 发送请求
ss -> db : 访问数据库
db - -> ss : 返回数据
ss - -> explore : 返回数据
explore - -> user : 返回数据

@enduml

PlantUML version 1.2022.7(Tue Aug 23 01:01:30 CST 2022)
(GPL source distribution)
Java Runtime: Java(TM) SE Runtime Environment
JVM: Java HotSpot(TM) 64-Bit Server VM
Default Encoding: GBK
Language: zh
Country: CN
--></g></svg>