<?xml version="1.0" encoding="UTF-8" standalone="no"?><svg xmlns="http://www.w3.org/2000/svg" xmlns:xlink="http://www.w3.org/1999/xlink" contentStyleType="text/css" height="570px" preserveAspectRatio="none" style="width:192px;height:570px;background:#FFFFFF;" version="1.1" viewBox="0 0 192 570" width="192px" zoomAndPan="magnify"><defs/><g><rect fill="#FFFFFF" height="34.584" rx="12.5" ry="12.5" style="stroke:#000000;stroke-width:1.0;" width="44" x="73" y="6"/><text fill="#000000" font-family="Verdana" font-size="12" lengthAdjust="spacing" textLength="24" x="83" y="28.0645">开始</text><rect fill="#FFFFFF" height="34.584" rx="12.5" ry="12.5" style="stroke:#000000;stroke-width:1.0;" width="116" x="37" y="60.584"/><text fill="#000000" font-family="Verdana" font-size="12" lengthAdjust="spacing" textLength="96" x="47" y="82.6484">准备要发送的数据</text><rect fill="#FFFFFF" height="34.584" rx="12.5" ry="12.5" style="stroke:#000000;stroke-width:1.0;" width="80" x="55" y="115.168"/><text fill="#000000" font-family="Verdana" font-size="12" lengthAdjust="spacing" textLength="60" x="65" y="137.2324">设置波特率</text><rect fill="#FFFFFF" height="34.584" rx="12.5" ry="12.5" style="stroke:#000000;stroke-width:1.0;" width="80" x="55" y="169.752"/><text fill="#000000" font-family="Verdana" font-size="12" lengthAdjust="spacing" textLength="60" x="65" y="191.8164">设置数据位</text><rect fill="#FFFFFF" height="34.584" rx="12.5" ry="12.5" style="stroke:#000000;stroke-width:1.0;" width="80" x="55" y="224.3359"/><text fill="#000000" font-family="Verdana" font-size="12" lengthAdjust="spacing" textLength="60" x="65" y="246.4004">设置校验位</text><rect fill="#FFFFFF" height="34.584" rx="12.5" ry="12.5" style="stroke:#000000;stroke-width:1.0;" width="92" x="49" y="278.9199"/><text fill="#000000" font-family="Verdana" font-size="12" lengthAdjust="spacing" textLength="72" x="59" y="300.9844">开始发送数据</text><rect fill="#FFFFFF" height="34.584" rx="12.5" ry="12.5" style="stroke:#000000;stroke-width:1.0;" width="104" x="43" y="390.063"/><text fill="#000000" font-family="Verdana" font-size="12" lengthAdjust="spacing" textLength="84" x="53" y="412.1274">发送当前数据位</text><rect fill="#FFFFFF" height="34.584" rx="12.5" ry="12.5" style="stroke:#000000;stroke-width:1.0;" width="128" x="31" y="453.4626"/><text fill="#000000" font-family="Verdana" font-size="12" lengthAdjust="spacing" textLength="108" x="41" y="475.5271">等待下一个时钟周期</text><polygon fill="#FFFFFF" points="51,333.5039,139,333.5039,151,345.5039,139,357.5039,51,357.5039,39,345.5039,51,333.5039" style="stroke:#000000;stroke-width:1.0;"/><text fill="#000000" font-family="Verdana" font-size="11" lengthAdjust="spacing" textLength="11" x="99" y="368.563">是</text><text fill="#000000" font-family="Verdana" font-size="11" lengthAdjust="spacing" textLength="88" x="51" y="349.8787">还有待发送的数据</text><rect fill="#FFFFFF" height="34.584" rx="12.5" ry="12.5" style="stroke:#000000;stroke-width:1.0;" width="44" x="73" y="530.0466"/><text fill="#000000" font-family="Verdana" font-size="12" lengthAdjust="spacing" textLength="24" x="83" y="552.1111">结束</text><line style="stroke:#000000;stroke-width:1.0;" x1="95" x2="95" y1="40.584" y2="60.584"/><polygon fill="#000000" points="91,50.584,95,60.584,99,50.584,95,54.584" style="stroke:#000000;stroke-width:1.0;"/><line style="stroke:#000000;stroke-width:1.0;" x1="95" x2="95" y1="95.168" y2="115.168"/><polygon fill="#000000" points="91,105.168,95,115.168,99,105.168,95,109.168" style="stroke:#000000;stroke-width:1.0;"/><line style="stroke:#000000;stroke-width:1.0;" x1="95" x2="95" y1="149.752" y2="169.752"/><polygon fill="#000000" points="91,159.752,95,169.752,99,159.752,95,163.752" style="stroke:#000000;stroke-width:1.0;"/><line style="stroke:#000000;stroke-width:1.0;" x1="95" x2="95" y1="204.3359" y2="224.3359"/><polygon fill="#000000" points="91,214.3359,95,224.3359,99,214.3359,95,218.3359" style="stroke:#000000;stroke-width:1.0;"/><line style="stroke:#000000;stroke-width:1.0;" x1="95" x2="95" y1="258.9199" y2="278.9199"/><polygon fill="#000000" points="91,268.9199,95,278.9199,99,268.9199,95,272.9199" style="stroke:#000000;stroke-width:1.0;"/><line style="stroke:#000000;stroke-width:1.0;" x1="95" x2="95" y1="424.647" y2="453.4626"/><polygon fill="#000000" points="91,443.4626,95,453.4626,99,443.4626,95,447.4626" style="stroke:#000000;stroke-width:1.0;"/><line style="stroke:#000000;stroke-width:1.0;" x1="95" x2="95" y1="357.5039" y2="390.063"/><polygon fill="#000000" points="91,380.063,95,390.063,99,380.063,95,384.063" style="stroke:#000000;stroke-width:1.0;"/><line style="stroke:#000000;stroke-width:1.0;" x1="95" x2="95" y1="488.0466" y2="498.0466"/><line style="stroke:#000000;stroke-width:1.0;" x1="95" x2="171" y1="498.0466" y2="498.0466"/><polygon fill="#000000" points="167,433.4626,171,423.4626,175,433.4626,171,429.4626" style="stroke:#000000;stroke-width:1.0;"/><line style="stroke:#000000;stroke-width:1.0;" x1="171" x2="171" y1="345.5039" y2="498.0466"/><line style="stroke:#000000;stroke-width:1.0;" x1="171" x2="151" y1="345.5039" y2="345.5039"/><polygon fill="#000000" points="161,341.5039,151,345.5039,161,349.5039,157,345.5039" style="stroke:#000000;stroke-width:1.0;"/><line style="stroke:#000000;stroke-width:1.0;" x1="39" x2="19" y1="345.5039" y2="345.5039"/><polygon fill="#000000" points="15,419.4626,19,429.4626,23,419.4626,19,423.4626" style="stroke:#000000;stroke-width:1.0;"/><line style="stroke:#000000;stroke-width:1.0;" x1="19" x2="19" y1="345.5039" y2="510.0466"/><line style="stroke:#000000;stroke-width:1.0;" x1="19" x2="95" y1="510.0466" y2="510.0466"/><line style="stroke:#000000;stroke-width:1.0;" x1="95" x2="95" y1="510.0466" y2="530.0466"/><polygon fill="#000000" points="91,520.0466,95,530.0466,99,520.0466,95,524.0466" style="stroke:#000000;stroke-width:1.0;"/><line style="stroke:#000000;stroke-width:1.0;" x1="95" x2="95" y1="313.5039" y2="333.5039"/><polygon fill="#000000" points="91,323.5039,95,333.5039,99,323.5039,95,327.5039" style="stroke:#000000;stroke-width:1.0;"/><!--MD5=[a768e6573cccc68a050c335ad646c0d9]
@startuml
!theme plain
:开始;

:准备要发送的数据;
:设置波特率;
:设置数据位;
:设置校验位;
:开始发送数据;
while (还有待发送的数据) is (是)
    :发送当前数据位;
    :等待下一个时钟周期;
endwhile

:结束;
@enduml

@startuml







<style>
  root {
    BackgroundColor white
    FontColor black
    FontName Verdana
    HyperLinkColor blue
    LineColor black
    LineThickness 1
    Margin 5
  }
  caption {
    LineThickness 0
  }
  footer {
    LineThickness 0
  }
  header {
    LineThickness 0
  }
  node {
    MaximumWidth 300
  }
  title {
    FontSize 22
    LineThickness 0
  }
</style>

skinparam ArrowLollipopColor black
skinparam BackgroundColor white
skinparam DefaultFontName Verdana
skinparam DefaultMonospacedFontName Courier
skinparam LifelineStrategy nosolid
skinparam ParticipantPadding 10
skinparam SequenceLifeLineBorderColor black
skinparam Shadowing false
skinparam UseBetaStyle true

skinparam Activity {
  BackgroundColor white
  BarColor black
  BorderColor black
  FontColor black
  FontName Verdana
}
skinparam Boundary {
  FontColor black
}
skinparam Box {
  Padding 5
}
skinparam CircledCharacter {
  FontColor black
  FontName Courier
  Radius 9
}
skinparam Class {
  BackgroundColor white
  BorderColor black
  FontColor black
  FontName Verdana
}
skinparam ClassAttribute {
  FontColor black
  FontName Verdana
}
skinparam ClassStereotype {
  FontColor black
  FontName Verdana
}
skinparam Footer {
  FontColor black
  FontName Verdana
}
skinparam Header {
  FontColor black
  FontName Verdana
}
skinparam Hyperlink {
  Color blue
}
skinparam IconPackage {
  Color black
  BackgroundColor white
}
skinparam IconPrivate {
  Color black
  BackgroundColor white
}
skinparam IconProtected {
  Color black
  BackgroundColor white
}
skinparam IconPublic {
  Color black
  BackgroundColor white
}
skinparam Note {
  FontColor black
  FontName Verdana
}
skinparam Object {
  BorderColor black
}
skinparam Package {
  BorderColor black
  FontColor black
  FontName Verdana
}
skinparam State {
  BackgroundColor white
  BorderColor black
}
skinparam StereotypeA {
  BackgroundColor white
  BorderColor black
}
skinparam StereotypeC {
  BackgroundColor white
  BorderColor black
}
skinparam StereotypeE {
  BackgroundColor white
  BorderColor black
}
skinparam StereotypeI {
  BackgroundColor white
  BorderColor black
}
skinparam StereotypeN {
  BackgroundColor white
  BorderColor black
}
skinparam UseCaseStereoType {
  FontColor black
  FontName Verdana
}
:开始;

:准备要发送的数据;
:设置波特率;
:设置数据位;
:设置校验位;
:开始发送数据;
while (还有待发送的数据) is (是)
    :发送当前数据位;
    :等待下一个时钟周期;
endwhile

:结束;
@enduml

PlantUML version 1.2022.7(Tue Aug 23 01:01:30 CST 2022)
(GPL source distribution)
Java Runtime: Java(TM) SE Runtime Environment
JVM: Java HotSpot(TM) 64-Bit Server VM
Default Encoding: GBK
Language: zh
Country: CN
--></g></svg>